<mxfile host="app.diagrams.net" modified="2023-02-10T14:00:14.707Z" agent="5.0 (Windows NT 10.0; Win64; x64) AppleWebKit/537.36 (KHTML, like Gecko) Chrome/109.0.0.0 Safari/537.36 Edg/109.0.1518.70" etag="gHvprXRyrqU_CrkpMgVP" version="20.8.2" type="github">
  <diagram id="R2lEEEUBdFMjLlhIrx00" name="Page-1">
    <mxGraphModel dx="1035" dy="764" grid="1" gridSize="10" guides="1" tooltips="1" connect="1" arrows="1" fold="1" page="1" pageScale="1" pageWidth="900" pageHeight="1600" math="0" shadow="0" extFonts="Permanent Marker^https://fonts.googleapis.com/css?family=Permanent+Marker">
      <root>
        <mxCell id="0" />
        <mxCell id="1" parent="0" />
        <mxCell id="RonEQ5KJtSZ7qbEHE6h3-12" style="edgeStyle=none;rounded=0;orthogonalLoop=1;jettySize=auto;html=1;exitX=0.25;exitY=0;exitDx=0;exitDy=0;entryX=0.5;entryY=1;entryDx=0;entryDy=0;endSize=6;strokeOpacity=100;jumpSize=6;strokeWidth=2;" edge="1" parent="1" source="RonEQ5KJtSZ7qbEHE6h3-14" target="RonEQ5KJtSZ7qbEHE6h3-16">
          <mxGeometry relative="1" as="geometry" />
        </mxCell>
        <mxCell id="RonEQ5KJtSZ7qbEHE6h3-13" style="rounded=0;orthogonalLoop=1;jettySize=auto;html=1;exitX=1;exitY=0.5;exitDx=0;exitDy=0;entryX=0;entryY=0.5;entryDx=0;entryDy=0;elbow=vertical;endSize=6;strokeOpacity=100;jumpSize=6;strokeWidth=2;fillColor=#1ba1e2;strokeColor=#006EAF;" edge="1" parent="1" source="RonEQ5KJtSZ7qbEHE6h3-14" target="RonEQ5KJtSZ7qbEHE6h3-40">
          <mxGeometry relative="1" as="geometry" />
        </mxCell>
        <mxCell id="RonEQ5KJtSZ7qbEHE6h3-14" value="Kafka" style="rounded=0;whiteSpace=wrap;html=1;" vertex="1" parent="1">
          <mxGeometry x="40" y="560" width="400" height="80" as="geometry" />
        </mxCell>
        <mxCell id="RonEQ5KJtSZ7qbEHE6h3-15" style="edgeStyle=none;rounded=0;orthogonalLoop=1;jettySize=auto;html=1;exitX=0.5;exitY=0;exitDx=0;exitDy=0;entryX=0.25;entryY=1;entryDx=0;entryDy=0;endSize=6;strokeOpacity=100;jumpSize=6;strokeWidth=2;" edge="1" parent="1" source="RonEQ5KJtSZ7qbEHE6h3-16" target="RonEQ5KJtSZ7qbEHE6h3-32">
          <mxGeometry relative="1" as="geometry" />
        </mxCell>
        <mxCell id="RonEQ5KJtSZ7qbEHE6h3-16" value="" style="rounded=0;whiteSpace=wrap;html=1;" vertex="1" parent="1">
          <mxGeometry x="40" y="440" width="190" height="80" as="geometry" />
        </mxCell>
        <mxCell id="RonEQ5KJtSZ7qbEHE6h3-17" value="Logstash&lt;br&gt;Consumer" style="rounded=0;whiteSpace=wrap;html=1;" vertex="1" parent="1">
          <mxGeometry x="50" y="450" width="80" height="60" as="geometry" />
        </mxCell>
        <mxCell id="RonEQ5KJtSZ7qbEHE6h3-18" value="Logstash&lt;br&gt;Consumer" style="rounded=0;whiteSpace=wrap;html=1;" vertex="1" parent="1">
          <mxGeometry x="140" y="450" width="80" height="60" as="geometry" />
        </mxCell>
        <mxCell id="RonEQ5KJtSZ7qbEHE6h3-19" style="edgeStyle=none;rounded=0;orthogonalLoop=1;jettySize=auto;html=1;exitX=0.5;exitY=0;exitDx=0;exitDy=0;entryX=0.75;entryY=1;entryDx=0;entryDy=0;endSize=6;strokeOpacity=100;jumpSize=6;strokeWidth=2;" edge="1" parent="1" source="RonEQ5KJtSZ7qbEHE6h3-20" target="RonEQ5KJtSZ7qbEHE6h3-32">
          <mxGeometry relative="1" as="geometry" />
        </mxCell>
        <mxCell id="RonEQ5KJtSZ7qbEHE6h3-20" value="" style="rounded=0;whiteSpace=wrap;html=1;" vertex="1" parent="1">
          <mxGeometry x="250" y="440" width="190" height="80" as="geometry" />
        </mxCell>
        <mxCell id="RonEQ5KJtSZ7qbEHE6h3-21" value="Logstash&lt;br&gt;Consumer" style="rounded=0;whiteSpace=wrap;html=1;" vertex="1" parent="1">
          <mxGeometry x="260" y="450" width="80" height="60" as="geometry" />
        </mxCell>
        <mxCell id="RonEQ5KJtSZ7qbEHE6h3-22" value="Logstash&lt;br&gt;Consumer" style="rounded=0;whiteSpace=wrap;html=1;" vertex="1" parent="1">
          <mxGeometry x="350" y="450" width="80" height="60" as="geometry" />
        </mxCell>
        <mxCell id="RonEQ5KJtSZ7qbEHE6h3-23" style="edgeStyle=orthogonalEdgeStyle;rounded=0;orthogonalLoop=1;jettySize=auto;html=1;exitX=0.5;exitY=0;exitDx=0;exitDy=0;entryX=0.5;entryY=1;entryDx=0;entryDy=0;endSize=6;strokeOpacity=100;jumpSize=6;strokeWidth=2;" edge="1" parent="1" source="RonEQ5KJtSZ7qbEHE6h3-24" target="RonEQ5KJtSZ7qbEHE6h3-14">
          <mxGeometry relative="1" as="geometry" />
        </mxCell>
        <mxCell id="RonEQ5KJtSZ7qbEHE6h3-24" value="" style="rounded=0;whiteSpace=wrap;html=1;" vertex="1" parent="1">
          <mxGeometry x="40" y="680" width="400" height="80" as="geometry" />
        </mxCell>
        <mxCell id="RonEQ5KJtSZ7qbEHE6h3-25" value="Logstash Producer" style="rounded=0;whiteSpace=wrap;html=1;" vertex="1" parent="1">
          <mxGeometry x="50" y="690" width="80" height="60" as="geometry" />
        </mxCell>
        <mxCell id="RonEQ5KJtSZ7qbEHE6h3-26" value="Logstash Producer" style="rounded=0;whiteSpace=wrap;html=1;" vertex="1" parent="1">
          <mxGeometry x="150" y="690" width="80" height="60" as="geometry" />
        </mxCell>
        <mxCell id="RonEQ5KJtSZ7qbEHE6h3-27" value="Logstash Producer" style="rounded=0;whiteSpace=wrap;html=1;" vertex="1" parent="1">
          <mxGeometry x="250" y="690" width="80" height="60" as="geometry" />
        </mxCell>
        <mxCell id="RonEQ5KJtSZ7qbEHE6h3-28" value="Logstash Producer" style="rounded=0;whiteSpace=wrap;html=1;" vertex="1" parent="1">
          <mxGeometry x="350" y="690" width="80" height="60" as="geometry" />
        </mxCell>
        <mxCell id="RonEQ5KJtSZ7qbEHE6h3-29" style="edgeStyle=none;rounded=0;orthogonalLoop=1;jettySize=auto;html=1;exitX=0.25;exitY=0;exitDx=0;exitDy=0;entryX=0.5;entryY=1;entryDx=0;entryDy=0;endSize=6;strokeOpacity=100;jumpSize=6;strokeWidth=2;" edge="1" parent="1" source="RonEQ5KJtSZ7qbEHE6h3-32" target="RonEQ5KJtSZ7qbEHE6h3-33">
          <mxGeometry relative="1" as="geometry" />
        </mxCell>
        <mxCell id="RonEQ5KJtSZ7qbEHE6h3-30" style="edgeStyle=none;rounded=0;orthogonalLoop=1;jettySize=auto;html=1;exitX=0.5;exitY=0;exitDx=0;exitDy=0;entryX=0.5;entryY=1;entryDx=0;entryDy=0;endSize=6;strokeOpacity=100;jumpSize=6;strokeWidth=2;" edge="1" parent="1" source="RonEQ5KJtSZ7qbEHE6h3-32" target="RonEQ5KJtSZ7qbEHE6h3-34">
          <mxGeometry relative="1" as="geometry" />
        </mxCell>
        <mxCell id="RonEQ5KJtSZ7qbEHE6h3-31" style="edgeStyle=none;rounded=0;orthogonalLoop=1;jettySize=auto;html=1;exitX=0.75;exitY=0;exitDx=0;exitDy=0;entryX=0.5;entryY=1;entryDx=0;entryDy=0;endSize=6;strokeOpacity=100;jumpSize=6;strokeWidth=2;" edge="1" parent="1" source="RonEQ5KJtSZ7qbEHE6h3-32" target="RonEQ5KJtSZ7qbEHE6h3-35">
          <mxGeometry relative="1" as="geometry" />
        </mxCell>
        <mxCell id="RonEQ5KJtSZ7qbEHE6h3-32" value="Elasticsearch" style="rounded=0;whiteSpace=wrap;html=1;" vertex="1" parent="1">
          <mxGeometry x="40" y="320" width="400" height="80" as="geometry" />
        </mxCell>
        <mxCell id="RonEQ5KJtSZ7qbEHE6h3-33" value="Elastalert" style="rounded=0;whiteSpace=wrap;html=1;" vertex="1" parent="1">
          <mxGeometry x="40" y="200" width="100" height="80" as="geometry" />
        </mxCell>
        <mxCell id="RonEQ5KJtSZ7qbEHE6h3-34" value="Kibana" style="rounded=0;whiteSpace=wrap;html=1;" vertex="1" parent="1">
          <mxGeometry x="190" y="200" width="100" height="80" as="geometry" />
        </mxCell>
        <mxCell id="RonEQ5KJtSZ7qbEHE6h3-35" value="Grafana" style="rounded=0;whiteSpace=wrap;html=1;" vertex="1" parent="1">
          <mxGeometry x="340" y="200" width="100" height="80" as="geometry" />
        </mxCell>
        <mxCell id="RonEQ5KJtSZ7qbEHE6h3-36" style="edgeStyle=none;rounded=0;orthogonalLoop=1;jettySize=auto;html=1;exitX=0.75;exitY=0;exitDx=0;exitDy=0;entryX=0.5;entryY=1;entryDx=0;entryDy=0;endSize=6;strokeOpacity=100;jumpSize=6;strokeWidth=2;" edge="1" parent="1" source="RonEQ5KJtSZ7qbEHE6h3-38" target="RonEQ5KJtSZ7qbEHE6h3-44">
          <mxGeometry relative="1" as="geometry" />
        </mxCell>
        <mxCell id="RonEQ5KJtSZ7qbEHE6h3-37" style="rounded=0;orthogonalLoop=1;jettySize=auto;html=1;exitX=0;exitY=0.5;exitDx=0;exitDy=0;entryX=1;entryY=0.5;entryDx=0;entryDy=0;elbow=vertical;endSize=6;strokeOpacity=100;jumpSize=6;strokeWidth=2;fillColor=#60a917;strokeColor=#2D7600;" edge="1" parent="1" source="RonEQ5KJtSZ7qbEHE6h3-38" target="RonEQ5KJtSZ7qbEHE6h3-20">
          <mxGeometry relative="1" as="geometry" />
        </mxCell>
        <mxCell id="RonEQ5KJtSZ7qbEHE6h3-38" value="Kafka" style="rounded=0;whiteSpace=wrap;html=1;" vertex="1" parent="1">
          <mxGeometry x="560" y="560" width="400" height="80" as="geometry" />
        </mxCell>
        <mxCell id="RonEQ5KJtSZ7qbEHE6h3-39" style="edgeStyle=none;rounded=0;orthogonalLoop=1;jettySize=auto;html=1;exitX=0.5;exitY=0;exitDx=0;exitDy=0;entryX=0.25;entryY=1;entryDx=0;entryDy=0;endSize=6;strokeOpacity=100;jumpSize=6;strokeWidth=2;" edge="1" parent="1" source="RonEQ5KJtSZ7qbEHE6h3-40" target="RonEQ5KJtSZ7qbEHE6h3-56">
          <mxGeometry relative="1" as="geometry" />
        </mxCell>
        <mxCell id="RonEQ5KJtSZ7qbEHE6h3-40" value="" style="rounded=0;whiteSpace=wrap;html=1;" vertex="1" parent="1">
          <mxGeometry x="560" y="440" width="190" height="80" as="geometry" />
        </mxCell>
        <mxCell id="RonEQ5KJtSZ7qbEHE6h3-41" value="Logstash&lt;br&gt;Consumer" style="rounded=0;whiteSpace=wrap;html=1;" vertex="1" parent="1">
          <mxGeometry x="570" y="450" width="80" height="60" as="geometry" />
        </mxCell>
        <mxCell id="RonEQ5KJtSZ7qbEHE6h3-42" value="Logstash Consumer" style="rounded=0;whiteSpace=wrap;html=1;" vertex="1" parent="1">
          <mxGeometry x="660" y="450" width="80" height="60" as="geometry" />
        </mxCell>
        <mxCell id="RonEQ5KJtSZ7qbEHE6h3-43" style="edgeStyle=none;rounded=0;orthogonalLoop=1;jettySize=auto;html=1;exitX=0.5;exitY=0;exitDx=0;exitDy=0;entryX=0.75;entryY=1;entryDx=0;entryDy=0;endSize=6;strokeOpacity=100;jumpSize=6;strokeWidth=2;" edge="1" parent="1" source="RonEQ5KJtSZ7qbEHE6h3-44" target="RonEQ5KJtSZ7qbEHE6h3-56">
          <mxGeometry relative="1" as="geometry" />
        </mxCell>
        <mxCell id="RonEQ5KJtSZ7qbEHE6h3-44" value="" style="rounded=0;whiteSpace=wrap;html=1;" vertex="1" parent="1">
          <mxGeometry x="770" y="440" width="190" height="80" as="geometry" />
        </mxCell>
        <mxCell id="RonEQ5KJtSZ7qbEHE6h3-62" value="" style="edgeStyle=orthogonalEdgeStyle;rounded=0;orthogonalLoop=1;jettySize=auto;html=1;strokeColor=#000099;strokeWidth=2;" edge="1" parent="1" source="RonEQ5KJtSZ7qbEHE6h3-45" target="RonEQ5KJtSZ7qbEHE6h3-46">
          <mxGeometry relative="1" as="geometry" />
        </mxCell>
        <mxCell id="RonEQ5KJtSZ7qbEHE6h3-45" value="Logstash Consumer" style="rounded=0;whiteSpace=wrap;html=1;" vertex="1" parent="1">
          <mxGeometry x="780" y="450" width="80" height="60" as="geometry" />
        </mxCell>
        <mxCell id="RonEQ5KJtSZ7qbEHE6h3-46" value="Logstash&lt;br&gt;Consumer" style="rounded=0;whiteSpace=wrap;html=1;" vertex="1" parent="1">
          <mxGeometry x="870" y="450" width="80" height="60" as="geometry" />
        </mxCell>
        <mxCell id="RonEQ5KJtSZ7qbEHE6h3-47" style="edgeStyle=orthogonalEdgeStyle;rounded=0;orthogonalLoop=1;jettySize=auto;html=1;exitX=0.5;exitY=0;exitDx=0;exitDy=0;entryX=0.5;entryY=1;entryDx=0;entryDy=0;endSize=6;strokeOpacity=100;jumpSize=6;strokeWidth=2;" edge="1" parent="1" source="RonEQ5KJtSZ7qbEHE6h3-48" target="RonEQ5KJtSZ7qbEHE6h3-38">
          <mxGeometry relative="1" as="geometry" />
        </mxCell>
        <mxCell id="RonEQ5KJtSZ7qbEHE6h3-48" value="" style="rounded=0;whiteSpace=wrap;html=1;" vertex="1" parent="1">
          <mxGeometry x="560" y="680" width="400" height="80" as="geometry" />
        </mxCell>
        <mxCell id="RonEQ5KJtSZ7qbEHE6h3-49" value="Logstash Producer" style="rounded=0;whiteSpace=wrap;html=1;" vertex="1" parent="1">
          <mxGeometry x="570" y="690" width="80" height="60" as="geometry" />
        </mxCell>
        <mxCell id="RonEQ5KJtSZ7qbEHE6h3-50" value="Logstash Producer" style="rounded=0;whiteSpace=wrap;html=1;" vertex="1" parent="1">
          <mxGeometry x="670" y="690" width="80" height="60" as="geometry" />
        </mxCell>
        <mxCell id="RonEQ5KJtSZ7qbEHE6h3-51" value="Logstash Producer" style="rounded=0;whiteSpace=wrap;html=1;" vertex="1" parent="1">
          <mxGeometry x="770" y="690" width="80" height="60" as="geometry" />
        </mxCell>
        <mxCell id="RonEQ5KJtSZ7qbEHE6h3-52" value="Logstash Producer" style="rounded=0;whiteSpace=wrap;html=1;" vertex="1" parent="1">
          <mxGeometry x="870" y="690" width="80" height="60" as="geometry" />
        </mxCell>
        <mxCell id="RonEQ5KJtSZ7qbEHE6h3-53" style="edgeStyle=none;rounded=0;orthogonalLoop=1;jettySize=auto;html=1;exitX=0.25;exitY=0;exitDx=0;exitDy=0;entryX=0.5;entryY=1;entryDx=0;entryDy=0;endSize=6;strokeOpacity=100;jumpSize=6;strokeWidth=2;" edge="1" parent="1" source="RonEQ5KJtSZ7qbEHE6h3-56" target="RonEQ5KJtSZ7qbEHE6h3-57">
          <mxGeometry relative="1" as="geometry" />
        </mxCell>
        <mxCell id="RonEQ5KJtSZ7qbEHE6h3-54" style="edgeStyle=none;rounded=0;orthogonalLoop=1;jettySize=auto;html=1;exitX=0.5;exitY=0;exitDx=0;exitDy=0;entryX=0.5;entryY=1;entryDx=0;entryDy=0;endSize=6;strokeOpacity=100;jumpSize=6;strokeWidth=2;" edge="1" parent="1" source="RonEQ5KJtSZ7qbEHE6h3-56" target="RonEQ5KJtSZ7qbEHE6h3-58">
          <mxGeometry relative="1" as="geometry" />
        </mxCell>
        <mxCell id="RonEQ5KJtSZ7qbEHE6h3-55" style="edgeStyle=none;rounded=0;orthogonalLoop=1;jettySize=auto;html=1;exitX=0.75;exitY=0;exitDx=0;exitDy=0;entryX=0.5;entryY=1;entryDx=0;entryDy=0;endSize=6;strokeOpacity=100;jumpSize=6;strokeWidth=2;" edge="1" parent="1" source="RonEQ5KJtSZ7qbEHE6h3-56" target="RonEQ5KJtSZ7qbEHE6h3-59">
          <mxGeometry relative="1" as="geometry" />
        </mxCell>
        <mxCell id="RonEQ5KJtSZ7qbEHE6h3-56" value="Elasticsearch" style="rounded=0;whiteSpace=wrap;html=1;" vertex="1" parent="1">
          <mxGeometry x="560" y="320" width="400" height="80" as="geometry" />
        </mxCell>
        <mxCell id="RonEQ5KJtSZ7qbEHE6h3-57" value="Elastalert" style="rounded=0;whiteSpace=wrap;html=1;" vertex="1" parent="1">
          <mxGeometry x="560" y="200" width="100" height="80" as="geometry" />
        </mxCell>
        <mxCell id="RonEQ5KJtSZ7qbEHE6h3-58" value="Kibana" style="rounded=0;whiteSpace=wrap;html=1;" vertex="1" parent="1">
          <mxGeometry x="710" y="200" width="100" height="80" as="geometry" />
        </mxCell>
        <mxCell id="RonEQ5KJtSZ7qbEHE6h3-59" value="Grafana" style="rounded=0;whiteSpace=wrap;html=1;" vertex="1" parent="1">
          <mxGeometry x="860" y="200" width="100" height="80" as="geometry" />
        </mxCell>
        <mxCell id="RonEQ5KJtSZ7qbEHE6h3-60" value="ATLAS" style="swimlane;fillColor=#1ba1e2;fontColor=#ffffff;strokeColor=#006EAF;" vertex="1" parent="1">
          <mxGeometry x="20" y="160" width="440" height="620" as="geometry" />
        </mxCell>
        <mxCell id="RonEQ5KJtSZ7qbEHE6h3-61" value="PASİFİK" style="swimlane;fillColor=#60a917;fontColor=#ffffff;strokeColor=#2D7600;" vertex="1" parent="1">
          <mxGeometry x="540" y="160" width="440" height="620" as="geometry" />
        </mxCell>
      </root>
    </mxGraphModel>
  </diagram>
</mxfile>
